<svg version="1.1" id="Layer_1" xmlns="http://www.w3.org/2000/svg" xmlns:xlink="http://www.w3.org/1999/xlink" x="0px" y="0px"
	 width="100%" viewBox="0 0 512 512" enable-background="new 0 0 512 512" xml:space="preserve">
<path fill="#FFFFFF" opacity="1.000000" stroke="none" 
	d="
M1.000000,316.000000 
	C1.000000,211.039825 1.000000,106.079643 1.000000,1.059734 
	C171.562088,1.059734 342.124207,1.059734 513.000000,1.059734 
	C513.000000,104.689102 513.000000,208.378510 512.621643,312.374084 
	C511.299255,308.082214 510.800873,303.336212 509.331573,298.912689 
	C503.887360,282.522156 494.987274,268.309418 481.099670,257.752411 
	C475.743256,253.680573 469.786285,250.354446 463.922150,247.005020 
	C454.782410,241.784607 444.649109,239.032654 434.342224,238.426193 
	C425.637878,237.914032 416.809692,239.505859 407.656189,240.093658 
	C405.569855,240.350052 403.863708,240.679276 401.994629,240.681595 
	C400.893402,238.491165 399.864288,236.667068 399.033813,234.756622 
	C396.612000,229.185349 394.762238,223.248749 388.903381,219.573914 
	C384.114899,208.790802 379.462982,198.338699 374.890717,187.503693 
	C375.598358,183.341370 377.399445,179.285019 376.587463,175.845566 
	C375.273407,170.279480 372.172668,165.147598 369.955444,159.779037 
	C367.429321,153.662399 364.557434,147.974792 356.902588,146.568573 
	C355.521912,143.656387 354.280121,141.072876 353.188751,138.802292 
	C358.849091,136.475037 364.171478,134.147369 369.599243,132.098907 
	C373.996857,130.439209 374.551697,126.672356 374.322968,123.044601 
	C374.074432,119.101784 371.836945,116.143623 367.614594,114.990860 
	C348.596069,109.798546 329.498688,104.855484 310.645996,99.112679 
	C301.591095,96.354431 293.436066,97.893776 285.293274,101.370529 
	C280.421967,103.450447 278.966949,107.043648 280.627747,111.159103 
	C282.636749,116.137352 286.274933,117.781921 291.448364,116.233864 
	C296.882751,114.607735 302.130646,112.946671 307.967194,115.788635 
	C311.803284,117.656509 316.414154,117.885071 320.623627,119.045319 
	C327.402466,120.913780 334.136383,122.945366 341.478760,125.079361 
	C335.354828,129.801041 333.449554,134.882858 336.792511,141.546509 
	C338.585052,145.119675 339.633667,149.066040 340.692230,153.003601 
	C334.894897,156.076080 329.423340,158.988968 323.572449,161.943298 
	C322.116302,162.325821 320.980652,162.543747 319.971527,163.026291 
	C302.454010,171.402588 284.934357,179.774857 267.451050,188.222214 
	C244.971939,199.083435 222.524719,210.010605 199.906036,220.564606 
	C197.165131,211.426651 194.491669,202.658661 192.028656,193.831940 
	C190.210373,187.315735 188.666595,180.722946 187.335480,173.996490 
	C194.623993,171.143387 201.601059,168.516937 208.522903,165.752258 
	C213.203842,163.882660 217.925964,162.050430 222.401505,159.756393 
	C225.190613,158.326752 227.021545,155.735931 225.650909,152.298172 
	C224.335083,148.997803 221.948242,146.832428 218.144394,147.086884 
	C216.044662,147.227341 213.967148,147.722809 211.883926,148.083252 
	C196.638565,150.721069 181.325851,153.027832 166.169006,156.102646 
	C151.125473,159.154480 152.478363,155.221146 148.373352,171.204742 
	C148.332840,171.362518 148.197845,171.496948 148.161789,171.654800 
	C147.044662,176.546310 149.283371,180.558197 154.193069,180.820267 
	C159.735031,181.116104 165.333084,180.360794 171.071136,180.413177 
	C171.799057,182.419144 172.445389,184.051529 172.913193,185.733566 
	C177.015610,200.484482 181.086151,215.244263 184.987732,230.348969 
	C181.992004,236.478058 184.281998,241.915237 185.764404,247.473358 
	C186.147934,248.911423 186.037308,251.492767 185.154770,252.102036 
	C175.287415,258.914124 165.224213,265.442505 155.060242,271.736725 
	C145.451721,261.297943 134.785202,252.916809 121.672043,247.926514 
	C112.821014,244.558197 103.816040,242.601883 94.297867,241.681305 
	C85.511658,240.831497 77.289543,241.978287 68.534653,243.937958 
	C63.488098,245.328140 58.630096,246.173492 54.252159,248.106277 
	C32.123470,257.875580 15.817658,273.572754 7.002367,296.364594 
	C4.539937,302.731171 2.976071,309.445312 1.000000,316.000000 
z"/>
<path fill="#FFFFFF" opacity="1.000000" stroke="none" 
	d="
M513.000000,339.000000 
	C513.000000,396.970367 513.000000,454.940765 513.000000,512.955566 
	C342.450134,512.955566 171.900284,512.955566 1.000000,512.955566 
	C1.000000,456.312927 1.000000,399.625122 1.375530,342.633392 
	C3.187001,348.304077 4.039990,354.496155 6.171575,360.211304 
	C11.861492,375.467010 21.397501,387.977661 34.250668,398.106415 
	C44.652092,406.303070 56.263981,411.668091 69.434845,414.901642 
	C79.082817,416.196777 88.157509,417.590027 97.658569,416.216156 
	C107.553024,414.785461 117.100525,412.703217 126.070419,408.396637 
	C142.726791,400.399658 155.828033,388.371643 164.866623,372.265747 
	C170.277985,362.623291 174.083191,352.281403 175.451904,341.042847 
	C181.243469,340.690033 186.597534,340.388123 191.987015,340.468109 
	C194.294647,347.476624 195.617615,354.619507 202.062653,359.361420 
	C204.222672,361.335144 206.042709,363.362732 208.295685,364.605438 
	C221.516891,371.897980 234.440094,370.679596 247.358261,362.891846 
	C250.282852,364.956573 252.889420,366.896667 255.423981,368.926636 
	C262.371429,374.490967 268.214111,374.800079 272.442291,369.048248 
	C274.938843,365.652008 277.366364,362.203430 279.761749,358.734741 
	C282.905243,354.182648 282.834442,348.691650 279.670380,346.287628 
	C275.694275,343.266571 269.988953,344.433197 266.527985,348.974976 
	C262.481049,354.285675 262.481049,354.285675 257.887756,348.602661 
	C260.794128,339.427246 260.807281,330.674011 257.968750,321.634521 
	C261.845337,316.951843 265.495636,312.517487 269.286316,308.206482 
	C277.222748,299.180634 285.278381,290.259460 293.202362,281.222778 
	C304.474915,268.367310 315.706268,255.475311 326.888245,242.541000 
	C332.142792,236.462997 337.107147,230.130798 342.444183,224.128235 
	C349.113220,216.627594 356.030609,209.347778 362.992004,202.313538 
	C366.817627,211.086685 370.492035,219.518951 374.098938,228.375381 
	C374.785522,232.089432 375.284180,235.465622 376.359497,238.646896 
	C377.649323,242.462921 379.430908,246.112732 380.681396,249.984467 
	C376.571075,252.923523 372.527618,255.430801 369.029449,258.549622 
	C352.244507,273.514282 341.792358,291.785736 338.843414,314.454041 
	C336.554901,332.045563 339.249023,348.523529 346.790405,364.355072 
	C353.543976,378.532776 363.471069,390.187225 376.578156,398.719940 
	C385.789948,404.716766 395.646149,409.785553 407.119415,411.402710 
	C415.053253,412.172913 422.778900,412.953156 430.501770,412.927002 
	C447.759583,412.868561 463.236694,407.169312 477.057556,396.967316 
	C491.432556,386.356232 502.239746,372.974426 508.006744,355.882996 
	C509.881683,350.326355 511.347229,344.631592 513.000000,339.000000 
z"/>
<path fill="#0072A2" opacity="1.000000" stroke="none" 
	d="
M69.009941,414.833588 
	C56.263981,411.668091 44.652092,406.303070 34.250668,398.106415 
	C21.397501,387.977661 11.861492,375.467010 6.171575,360.211304 
	C4.039990,354.496155 3.187001,348.304077 1.375530,342.164734 
	C1.000000,333.645782 1.000000,325.291534 1.000000,316.468658 
	C2.976071,309.445312 4.539937,302.731171 7.002367,296.364594 
	C15.817658,273.572754 32.123470,257.875580 54.252159,248.106277 
	C58.630096,246.173492 63.488098,245.328140 68.755600,244.229904 
	C79.222054,249.299911 89.204918,253.851486 98.810463,259.094330 
	C102.018593,260.845367 104.261986,264.363922 106.533295,267.041443 
	C97.130600,266.351898 87.920746,264.136353 79.197914,265.368500 
	C61.860901,267.817505 47.285599,276.289459 36.734760,290.766968 
	C25.240131,306.539551 21.207821,323.969269 25.569092,343.082581 
	C29.874804,361.952362 40.834000,376.167419 57.469559,385.644409 
	C67.851494,391.558807 79.331833,394.338043 91.468742,393.005524 
	C96.979195,392.400482 102.467827,391.596649 107.843826,391.201538 
	C97.935486,400.906647 86.735138,407.915497 73.736427,412.004486 
	C72.032852,412.540405 70.579292,413.871033 69.009941,414.833588 
z"/>
<path fill="#00628A" opacity="1.000000" stroke="none" 
	d="
M513.000000,338.531342 
	C511.347229,344.631592 509.881683,350.326355 508.006744,355.882996 
	C502.239746,372.974426 491.432556,386.356232 477.057556,396.967316 
	C463.236694,407.169312 447.759583,412.868561 430.501770,412.927002 
	C422.778900,412.953156 415.053253,412.172913 407.508118,411.350494 
	C418.099823,408.191711 428.242249,404.692993 436.823364,397.984924 
	C441.488190,394.338379 445.588776,389.970093 449.953552,385.949615 
	C449.963226,385.971893 449.916199,385.961334 450.141785,385.900208 
	C450.654877,385.689850 450.868927,385.469330 451.336548,385.022827 
	C467.565094,376.986908 479.263092,365.256744 485.882751,348.525452 
	C494.663666,326.331635 489.291107,300.644958 473.531891,282.959869 
	C467.132355,275.778290 459.199127,270.779327 450.849304,265.799805 
	C446.670654,261.911865 442.672852,258.267639 438.541534,254.781693 
	C429.648254,247.277634 418.568909,244.280762 408.036316,240.166458 
	C416.809692,239.505859 425.637878,237.914032 434.342224,238.426193 
	C444.649109,239.032654 454.782410,241.784607 463.922150,247.005020 
	C469.786285,250.354446 475.743256,253.680573 481.099670,257.752411 
	C494.987274,268.309418 503.887360,282.522156 509.331573,298.912689 
	C510.800873,303.336212 511.299255,308.082214 512.621643,312.840088 
	C513.000000,321.354218 513.000000,329.708466 513.000000,338.531342 
z"/>
<path fill="#FF4C4D" opacity="1.000000" stroke="none" 
	d="
M200.063751,220.909363 
	C222.524719,210.010605 244.971939,199.083435 267.451050,188.222214 
	C284.934357,179.774857 302.454010,171.402588 319.971527,163.026291 
	C320.980652,162.543747 322.116302,162.325821 323.716309,162.269913 
	C327.501038,169.401566 330.762543,176.248077 333.863464,183.407715 
	C292.449341,203.626160 251.195786,223.531464 210.019257,243.399612 
	C215.460907,262.857361 220.787872,281.905060 225.851273,301.259033 
	C217.226746,302.015808 210.054977,305.629333 203.095932,309.599365 
	C199.966858,298.261475 196.907944,287.319427 193.763992,276.073242 
	C185.150070,281.913849 176.984482,287.450470 168.472198,293.011841 
	C161.415756,297.634613 154.706055,302.232666 147.678833,306.988068 
	C141.759613,310.883606 136.157898,314.621796 130.556198,318.359985 
	C130.689835,318.601562 130.823486,318.843109 130.957138,319.084686 
	C137.968826,318.672028 144.980515,318.259369 152.448700,317.922913 
	C160.326141,317.339050 167.747070,316.678986 175.625320,316.010956 
	C183.682755,315.656860 191.282883,315.310699 198.805450,315.304382 
	C196.880096,319.449280 195.032272,323.254333 192.727509,327.039917 
	C183.703552,327.671326 175.144730,328.473999 166.567612,328.939331 
	C151.850891,329.737732 137.118073,330.239441 122.401245,331.036255 
	C114.486229,331.464752 106.595284,332.662964 98.684570,332.755981 
	C90.501656,332.852234 81.566437,335.617615 75.023148,327.642639 
	C77.274086,325.512604 79.219124,323.454346 81.507118,321.901398 
	C99.300919,309.823914 117.160812,297.843811 135.344360,285.840698 
	C142.196869,281.247620 148.705322,276.647461 155.213776,272.047333 
	C165.224213,265.442505 175.287415,258.914124 185.154770,252.102036 
	C186.037308,251.492767 186.147934,248.911423 185.764404,247.473358 
	C184.281998,241.915237 181.992004,236.478058 185.300903,230.235229 
	C190.549576,226.819061 195.306656,223.864212 200.063751,220.909363 
z"/>
<path fill="#F33B3B" opacity="1.000000" stroke="none" 
	d="
M334.024048,183.094574 
	C330.762543,176.248077 327.501038,169.401566 324.095642,162.228455 
	C329.423340,158.988968 334.894897,156.076080 341.055542,153.052795 
	C346.843567,150.927338 351.942566,148.912277 357.041534,146.897217 
	C364.557434,147.974792 367.429321,153.662399 369.955444,159.779037 
	C372.172668,165.147598 375.273407,170.279480 376.587463,175.845566 
	C377.399445,179.285019 375.598358,183.341370 374.561737,187.571533 
	C370.382355,192.672394 366.611572,197.322525 362.840820,201.972626 
	C356.030609,209.347778 349.113220,216.627594 342.444183,224.128235 
	C337.107147,230.130798 332.142792,236.462997 326.888245,242.541000 
	C315.706268,255.475311 304.474915,268.367310 293.202362,281.222778 
	C285.278381,290.259460 277.222748,299.180634 269.286316,308.206482 
	C265.495636,312.517487 261.845337,316.951843 257.682434,321.474396 
	C254.476700,318.097839 251.720016,314.577240 248.983932,311.003723 
	C249.004532,310.950867 249.053650,310.848511 249.075577,310.516602 
	C251.583542,307.104706 253.967834,303.935608 256.573578,300.960480 
	C266.731659,289.362274 277.011749,277.870789 287.149933,266.255371 
	C302.404877,248.777603 317.571716,231.223007 332.790863,213.713974 
	C338.280396,207.398483 344.455383,201.301468 339.083496,191.586105 
	C343.191040,186.420685 347.156250,181.564667 351.121460,176.708664 
	C350.886383,176.531204 350.651306,176.353760 350.416260,176.176300 
	C344.952179,178.482407 339.488129,180.788498 334.024048,183.094574 
z"/>
<path fill="#006289" opacity="1.000000" stroke="none" 
	d="
M356.902588,146.568573 
	C351.942566,148.912277 346.843567,150.927338 341.381287,152.893188 
	C339.633667,149.066040 338.585052,145.119675 336.792511,141.546509 
	C333.449554,134.882858 335.354828,129.801041 341.478760,125.079361 
	C334.136383,122.945366 327.402466,120.913780 320.623627,119.045319 
	C316.414154,117.885071 311.803284,117.656509 307.967194,115.788635 
	C302.130646,112.946671 296.882751,114.607735 291.448364,116.233864 
	C286.274933,117.781921 282.636749,116.137352 280.627747,111.159103 
	C278.966949,107.043648 280.421967,103.450447 285.293274,101.370529 
	C293.436066,97.893776 301.591095,96.354431 310.645996,99.112679 
	C329.498688,104.855484 348.596069,109.798546 367.614594,114.990860 
	C371.836945,116.143623 374.074432,119.101784 374.322968,123.044601 
	C374.551697,126.672356 373.996857,130.439209 369.599243,132.098907 
	C364.171478,134.147369 358.849091,136.475037 353.188751,138.802292 
	C354.280121,141.072876 355.521912,143.656387 356.902588,146.568573 
z"/>
<path fill="#FF4C4D" opacity="1.000000" stroke="none" 
	d="
M170.906754,180.062622 
	C165.333084,180.360794 159.735031,181.116104 154.193069,180.820267 
	C149.283371,180.558197 147.044662,176.546310 148.161789,171.654800 
	C148.197845,171.496948 148.332840,171.362518 148.373352,171.204742 
	C152.478363,155.221146 151.125473,159.154480 166.169006,156.102646 
	C181.325851,153.027832 196.638565,150.721069 211.883926,148.083252 
	C213.967148,147.722809 216.044662,147.227341 218.144394,147.086884 
	C221.948242,146.832428 224.335083,148.997803 225.650909,152.298172 
	C227.021545,155.735931 225.190613,158.326752 222.401505,159.756393 
	C217.925964,162.050430 213.203842,163.882660 208.522903,165.752258 
	C201.601059,168.516937 194.623993,171.143387 186.950668,173.918671 
	C181.122833,176.026627 176.014801,178.044632 170.906754,180.062622 
z"/>
<path fill="#00628A" opacity="1.000000" stroke="none" 
	d="
M155.060242,271.736725 
	C148.705322,276.647461 142.196869,281.247620 135.339066,285.492462 
	C134.016861,284.093842 133.211273,282.784637 132.044052,282.050323 
	C124.401329,277.242310 116.680420,272.558624 108.792770,267.615662 
	C108.041252,267.280304 107.482002,267.163605 106.946259,267.038055 
	C106.969772,267.029175 106.946381,267.074524 106.946381,267.074524 
	C104.261986,264.363922 102.018593,260.845367 98.810463,259.094330 
	C89.204918,253.851486 79.222054,249.299911 69.165543,244.186554 
	C77.289543,241.978287 85.511658,240.831497 94.297867,241.681305 
	C103.816040,242.601883 112.821014,244.558197 121.672043,247.926514 
	C134.785202,252.916809 145.451721,261.297943 155.060242,271.736725 
z"/>
<path fill="#FE911E" opacity="1.000000" stroke="none" 
	d="
M389.039917,219.904907 
	C394.762238,223.248749 396.612000,229.185349 399.033813,234.756622 
	C399.864288,236.667068 400.893402,238.491165 401.928619,241.054077 
	C405.346466,248.889877 408.667480,256.026306 412.002960,263.528748 
	C416.533173,273.967529 421.131500,284.004303 425.539124,294.124146 
	C429.230774,302.600128 432.920197,311.089600 436.194519,319.730774 
	C438.630249,326.158875 436.778046,330.301514 430.817841,332.869934 
	C429.661713,331.064972 428.689117,329.503326 427.948853,327.838379 
	C418.706024,307.050171 409.462677,286.262085 400.290802,265.442535 
	C393.801361,250.711884 387.420349,235.933456 381.334167,220.957947 
	C384.131561,220.461334 386.585754,220.183136 389.039917,219.904907 
z"/>
<path fill="#016289" opacity="1.000000" stroke="none" 
	d="
M171.071136,180.413177 
	C176.014801,178.044632 181.122833,176.026627 186.615692,174.086456 
	C188.666595,180.722946 190.210373,187.315735 192.028656,193.831940 
	C194.491669,202.658661 197.165131,211.426651 199.906036,220.564606 
	C195.306656,223.864212 190.549576,226.819061 185.479309,229.887665 
	C181.086151,215.244263 177.015610,200.484482 172.913193,185.733566 
	C172.445389,184.051529 171.799057,182.419144 171.071136,180.413177 
z"/>
<path fill="#0072A2" opacity="1.000000" stroke="none" 
	d="
M411.988464,263.162720 
	C408.667480,256.026306 405.346466,248.889877 402.091492,241.380966 
	C403.863708,240.679276 405.569855,240.350052 407.656189,240.093658 
	C418.568909,244.280762 429.648254,247.277634 438.541534,254.781693 
	C442.672852,258.267639 446.670654,261.911865 450.455963,265.749512 
	C449.264282,265.723907 448.342255,265.443359 447.427490,265.140839 
	C435.792084,261.293030 424.042542,259.503815 411.988464,263.162720 
z"/>
<path fill="#016289" opacity="1.000000" stroke="none" 
	d="
M388.903381,219.573914 
	C386.585754,220.183136 384.131561,220.461334 381.007996,221.009094 
	C378.281219,223.502838 376.223816,225.727020 374.166443,227.951202 
	C370.492035,219.518951 366.817627,211.086685 362.992004,202.313538 
	C366.611572,197.322525 370.382355,192.672394 374.482086,187.954437 
	C379.462982,198.338699 384.114899,208.790802 388.903381,219.573914 
z"/>
<path fill="#0072A2" opacity="1.000000" stroke="none" 
	d="
M449.943848,385.927338 
	C445.588776,389.970093 441.488190,394.338379 436.823364,397.984924 
	C428.242249,404.692993 418.099823,408.191711 407.298645,410.994568 
	C395.646149,409.785553 385.789948,404.716766 376.578156,398.719940 
	C363.471069,390.187225 353.543976,378.532776 346.790405,364.355072 
	C339.249023,348.523529 336.554901,332.045563 338.843414,314.454041 
	C341.792358,291.785736 352.244507,273.514282 369.029449,258.549622 
	C372.527618,255.430801 376.571075,252.923523 381.007477,250.137344 
	C384.712250,257.426636 387.772797,264.712952 390.522339,272.133362 
	C384.876678,277.277740 378.808105,281.713654 374.349579,287.409790 
	C362.588104,302.436096 358.451965,319.834900 362.377838,338.488617 
	C365.495453,353.301941 373.132263,365.893677 385.061005,375.537506 
	C396.108856,384.469208 408.605225,389.505157 422.990143,390.100403 
	C432.339569,390.487274 441.104828,388.238770 449.943848,385.927338 
z"/>
<path fill="#00628A" opacity="1.000000" stroke="none" 
	d="
M69.434845,414.901642 
	C70.579292,413.871033 72.032852,412.540405 73.736427,412.004486 
	C86.735138,407.915497 97.935486,400.906647 108.016922,390.883850 
	C119.870712,385.877930 130.015472,379.601593 137.860703,369.744507 
	C144.415451,361.508850 149.257736,352.614960 151.449585,342.089050 
	C159.602219,341.707275 167.308304,341.400513 175.014404,341.093719 
	C174.083191,352.281403 170.277985,362.623291 164.866623,372.265747 
	C155.828033,388.371643 142.726791,400.399658 126.070419,408.396637 
	C117.100525,412.703217 107.553024,414.785461 97.658569,416.216156 
	C88.157509,417.590027 79.082817,416.196777 69.434845,414.901642 
z"/>
<path fill="#FFB023" opacity="1.000000" stroke="none" 
	d="
M203.166077,309.995209 
	C210.054977,305.629333 217.226746,302.015808 226.250305,301.298981 
	C231.281586,302.077179 235.650269,303.121643 240.172272,304.458679 
	C243.234940,306.783722 246.144287,308.816132 249.053650,310.848511 
	C249.053650,310.848511 249.004532,310.950867 248.959686,311.343170 
	C247.808014,313.125580 246.794525,314.604034 245.577682,315.890045 
	C241.072845,320.650879 236.500916,325.348267 231.598267,329.959351 
	C227.908340,327.574585 224.485275,327.019836 221.243332,329.846100 
	C217.814178,332.835541 218.072067,336.453461 219.940674,340.518250 
	C213.910706,346.916840 207.916687,352.984741 201.922668,359.052673 
	C195.617615,354.619507 194.294647,347.476624 192.256866,340.228821 
	C192.722351,335.424896 192.953384,331.242126 193.184433,327.059387 
	C195.032272,323.254333 196.880096,319.449280 198.946533,315.002319 
	C200.498795,312.905365 201.832428,311.450287 203.166077,309.995209 
z"/>
<path fill="#F33B3B" opacity="1.000000" stroke="none" 
	d="
M192.727509,327.039917 
	C192.953384,331.242126 192.722351,335.424896 192.221451,339.846924 
	C186.597534,340.388123 181.243469,340.690033 175.451904,341.042847 
	C167.308304,341.400513 159.602219,341.707275 151.016907,342.018616 
	C147.876877,342.338776 145.624557,342.832947 143.353836,342.941193 
	C127.994537,343.673248 112.630684,344.309753 97.270592,345.026001 
	C95.982101,345.086090 94.720131,345.641022 93.429138,345.733978 
	C87.343292,346.171936 81.022766,347.161255 76.376480,341.777557 
	C72.782570,337.613251 72.026932,332.921143 74.876122,327.948456 
	C81.566437,335.617615 90.501656,332.852234 98.684570,332.755981 
	C106.595284,332.662964 114.486229,331.464752 122.401245,331.036255 
	C137.118073,330.239441 151.850891,329.737732 166.567612,328.939331 
	C175.144730,328.473999 183.703552,327.671326 192.727509,327.039917 
z"/>
<path fill="#FFB023" opacity="1.000000" stroke="none" 
	d="
M390.833313,271.999298 
	C387.772797,264.712952 384.712250,257.426636 381.325623,249.987396 
	C379.430908,246.112732 377.649323,242.462921 376.359497,238.646896 
	C375.284180,235.465622 374.785522,232.089432 374.098938,228.375381 
	C376.223816,225.727020 378.281219,223.502838 380.664734,221.227509 
	C387.420349,235.933456 393.801361,250.711884 400.290802,265.442535 
	C409.462677,286.262085 418.706024,307.050171 427.948853,327.838379 
	C428.689117,329.503326 429.661713,331.064972 430.612305,333.192444 
	C422.866516,335.895935 419.009918,334.249176 415.427948,326.835724 
	C412.805634,321.408478 410.447845,315.853149 407.984406,310.349426 
	C402.263428,297.567841 396.549866,284.782898 390.833313,271.999298 
z"/>
<path fill="#026388" opacity="1.000000" stroke="none" 
	d="
M219.976639,340.187592 
	C218.072067,336.453461 217.814178,332.835541 221.243332,329.846100 
	C224.485275,327.019836 227.908340,327.574585 231.756592,330.254700 
	C239.345184,336.153198 246.386673,341.689636 253.525681,347.097321 
	C254.740234,348.017334 256.373077,348.385132 257.812683,349.008026 
	C262.481049,354.285675 262.481049,354.285675 266.527985,348.974976 
	C269.988953,344.433197 275.694275,343.266571 279.670380,346.287628 
	C282.834442,348.691650 282.905243,354.182648 279.761749,358.734741 
	C277.366364,362.203430 274.938843,365.652008 272.442291,369.048248 
	C268.214111,374.800079 262.371429,374.490967 255.423981,368.926636 
	C252.889420,366.896667 250.282852,364.956573 247.354187,362.548706 
	C245.874420,360.995880 244.847656,359.746124 243.608795,358.763855 
	C235.757523,352.538849 227.859344,346.372986 219.976639,340.187592 
z"/>
<path fill="#FE911E" opacity="1.000000" stroke="none" 
	d="
M219.940674,340.518250 
	C227.859344,346.372986 235.757523,352.538849 243.608795,358.763855 
	C244.847656,359.746124 245.874420,360.995880 247.003326,362.465118 
	C234.440094,370.679596 221.516891,371.897980 208.295685,364.605438 
	C206.042709,363.362732 204.222672,361.335144 202.062653,359.361420 
	C207.916687,352.984741 213.910706,346.916840 219.940674,340.518250 
z"/>
<path fill="#FE911E" opacity="1.000000" stroke="none" 
	d="
M257.887756,348.602661 
	C256.373077,348.385132 254.740234,348.017334 253.525681,347.097321 
	C246.386673,341.689636 239.345184,336.153198 232.112518,330.364807 
	C236.500916,325.348267 241.072845,320.650879 245.577682,315.890045 
	C246.794525,314.604034 247.808014,313.125580 248.939087,311.396057 
	C251.720016,314.577240 254.476700,318.097839 257.519714,321.778625 
	C260.807281,330.674011 260.794128,339.427246 257.887756,348.602661 
z"/>
<path fill="#FFFFFF" opacity="1.000000" stroke="none" 
	d="
M75.023148,327.642639 
	C72.026932,332.921143 72.782570,337.613251 76.376480,341.777557 
	C81.022766,347.161255 87.343292,346.171936 93.429138,345.733978 
	C94.720131,345.641022 95.982101,345.086090 97.270592,345.026001 
	C112.630684,344.309753 127.994537,343.673248 143.353836,342.941193 
	C145.624557,342.832947 147.876877,342.338776 150.570374,342.093628 
	C149.257736,352.614960 144.415451,361.508850 137.860703,369.744507 
	C130.015472,379.601593 119.870712,385.877930 108.139450,390.565369 
	C102.467827,391.596649 96.979195,392.400482 91.468742,393.005524 
	C79.331833,394.338043 67.851494,391.558807 57.469559,385.644409 
	C40.834000,376.167419 29.874804,361.952362 25.569092,343.082581 
	C21.207821,323.969269 25.240131,306.539551 36.734760,290.766968 
	C47.285599,276.289459 61.860901,267.817505 79.197914,265.368500 
	C87.920746,264.136353 97.130600,266.351898 106.533295,267.041443 
	C106.946381,267.074524 106.969772,267.029175 107.066803,267.334442 
	C107.770905,267.704590 108.377968,267.769470 108.985039,267.834351 
	C116.680420,272.558624 124.401329,277.242310 132.044052,282.050323 
	C133.211273,282.784637 134.016861,284.093842 134.994995,285.485382 
	C117.160812,297.843811 99.300919,309.823914 81.507118,321.901398 
	C79.219124,323.454346 77.274086,325.512604 75.023148,327.642639 
z"/>
<path fill="#FFFFFF" opacity="1.000000" stroke="none" 
	d="
M390.522339,272.133362 
	C396.549866,284.782898 402.263428,297.567841 407.984406,310.349426 
	C410.447845,315.853149 412.805634,321.408478 415.427948,326.835724 
	C419.009918,334.249176 422.866516,335.895935 430.903839,333.387726 
	C436.778046,330.301514 438.630249,326.158875 436.194519,319.730774 
	C432.920197,311.089600 429.230774,302.600128 425.539124,294.124146 
	C421.131500,284.004303 416.533173,273.967529 412.002960,263.528748 
	C424.042542,259.503815 435.792084,261.293030 447.427490,265.140839 
	C448.342255,265.443359 449.264282,265.723907 450.576294,266.064972 
	C459.199127,270.779327 467.132355,275.778290 473.531891,282.959869 
	C489.291107,300.644958 494.663666,326.331635 485.882751,348.525452 
	C479.263092,365.256744 467.565094,376.986908 451.071167,384.979889 
	C450.291229,385.381531 450.103729,385.671448 449.916199,385.961365 
	C449.916199,385.961334 449.963226,385.971893 449.953552,385.949615 
	C441.104828,388.238770 432.339569,390.487274 422.990143,390.100403 
	C408.605225,389.505157 396.108856,384.469208 385.061005,375.537506 
	C373.132263,365.893677 365.495453,353.301941 362.377838,338.488617 
	C358.451965,319.834900 362.588104,302.436096 374.349579,287.409790 
	C378.808105,281.713654 384.876678,277.277740 390.522339,272.133362 
z"/>
<path fill="#0072A2" opacity="1.000000" stroke="none" 
	d="
M450.141785,385.900238 
	C450.103729,385.671448 450.291229,385.381531 450.744110,385.134583 
	C450.868927,385.469330 450.654877,385.689850 450.141785,385.900238 
z"/>
<path fill="#FFFFFF" opacity="1.000000" stroke="none" 
	d="
M240.018951,304.166077 
	C235.650269,303.121643 231.281586,302.077179 226.513885,300.992737 
	C220.787872,281.905060 215.460907,262.857361 210.019257,243.399612 
	C251.195786,223.531464 292.449341,203.626160 333.863464,183.407730 
	C339.488129,180.788498 344.952179,178.482407 350.416260,176.176300 
	C350.651306,176.353760 350.886383,176.531204 351.121460,176.708664 
	C347.156250,181.564667 343.191040,186.420685 338.777100,191.728775 
	C329.755341,201.757874 321.103729,211.265930 312.629150,220.929291 
	C301.897675,233.166122 291.304382,245.524216 280.662994,257.839935 
	C275.078094,264.303558 269.572540,270.836609 263.932953,277.251984 
	C256.009521,286.265442 247.994690,295.198578 240.018951,304.166077 
z"/>
<path fill="#FFFFFF" opacity="1.000000" stroke="none" 
	d="
M203.095917,309.599365 
	C201.832428,311.450287 200.498795,312.905365 199.024078,314.662476 
	C191.282883,315.310699 183.682755,315.656860 175.548065,315.598480 
	C172.948624,307.791656 170.883759,300.389374 168.818909,292.987091 
	C176.984482,287.450470 185.150070,281.913849 193.763992,276.073242 
	C196.907944,287.319427 199.966858,298.261475 203.095917,309.599365 
z"/>
<path fill="#016289" opacity="1.000000" stroke="none" 
	d="
M168.472183,293.011841 
	C170.883759,300.389374 172.948624,307.791656 175.090744,315.606415 
	C167.747070,316.678986 160.326141,317.339050 152.292969,317.578979 
	C150.452606,313.716095 149.224487,310.273438 147.996338,306.830750 
	C154.706055,302.232666 161.415756,297.634613 168.472183,293.011841 
z"/>
<path fill="#FFFFFF" opacity="1.000000" stroke="none" 
	d="
M147.678833,306.988098 
	C149.224487,310.273438 150.452606,313.716095 151.836456,317.502747 
	C144.980515,318.259369 137.968826,318.672028 130.957138,319.084686 
	C130.823486,318.843109 130.689835,318.601562 130.556198,318.359985 
	C136.157898,314.621796 141.759613,310.883606 147.678833,306.988098 
z"/>
<path fill="#FF4C4D" opacity="1.000000" stroke="none" 
	d="
M240.172272,304.458679 
	C247.994690,295.198578 256.009521,286.265442 263.932953,277.251984 
	C269.572540,270.836609 275.078094,264.303558 280.662994,257.839935 
	C291.304382,245.524216 301.897675,233.166122 312.629150,220.929291 
	C321.103729,211.265930 329.755341,201.757874 338.634766,192.038177 
	C344.455383,201.301468 338.280396,207.398483 332.790863,213.713974 
	C317.571716,231.223007 302.404877,248.777603 287.149933,266.255371 
	C277.011749,277.870789 266.731659,289.362274 256.573578,300.960480 
	C253.967834,303.935608 251.583542,307.104706 249.075577,310.516602 
	C246.144287,308.816132 243.234940,306.783722 240.172272,304.458679 
z"/>
<path fill="#0072A2" opacity="1.000000" stroke="none" 
	d="
M108.792770,267.615662 
	C108.377968,267.769470 107.770905,267.704590 107.043297,267.343323 
	C107.482002,267.163605 108.041252,267.280304 108.792770,267.615662 
z"/>
</svg>